Coordinates
version=1
nRows=19
nColumns=24
inDegrees=yes

Units are S.I. units (second, meters, Newtons, ...)
Angles are in degrees.

endheader
time	pelvis_tilt	pelvis_list	pelvis_rotation	pelvis_tx	pelvis_ty	pelvis_tz	hip_flexion_r	hip_adduction_r	hip_rotation_r	knee_angle_r	ankle_angle_r	subtalar_angle_r	mtp_angle_r	hip_flexion_l	hip_adduction_l	hip_rotation_l	knee_angle_l	ankle_angle_l	subtalar_angle_l	mtp_angle_l	lumbar_extension	lumbar_bending	lumbar_rotation
      1.32100000	      0.50161688	      7.73284917	      0.23649590	      0.35459404	      0.99636711	      0.28269403	     18.43503182	     -9.11163885	     -0.15764873	    -70.27768663	     -2.44482409	     -7.82201226	      1.41056106	      6.63243738	     13.19842009	      2.50947356	     -7.70343349	      0.45179071	    -11.56630696	      0.89882345	     -2.16414519	     -6.31618498	      2.04905097
      1.32516667	      0.57923068	      7.63928593	      0.32590737	      0.35953217	      0.99709209	      0.28251993	     18.90887495	     -8.97374533	     -0.09624493	    -70.00612025	     -1.66059100	     -8.21701230	      1.37780037	      6.05996891	     13.11356271	      2.73350751	     -7.41914261	      0.53108657	    -11.58634942	      0.89214279	     -2.28796665	     -6.22268010	      1.88946491
      1.32933333	      0.61585303	      7.52526349	      0.43398463	      0.36441716	      0.99770522	      0.28231619	     19.41741238	     -8.82324168	     -0.05867919	    -69.68871211	     -0.86581282	     -8.46550487	      1.36090507	      5.56069481	     13.00709991	      2.95297908	     -7.18798812	      0.62068655	    -11.58060334	      0.88763357	     -2.37799158	     -6.08357610	      1.81185730
      1.33350000	      0.69258153	      7.41428046	      0.53696640	      0.36931176	      0.99836573	      0.28213337	     19.86185475	     -8.67522856	     -0.02591551	    -69.30708591	     -0.11482416	     -8.79190543	      1.31968678	      5.00126695	     12.90285236	      3.21000781	     -6.92159473	      0.68615326	    -11.64529337	      0.87551368	     -2.51713958	     -5.96531973	      1.67636579
      1.33766667	      0.73744203	      7.31748185	      0.64314964	      0.37421969	      0.99892561	      0.28193696	     20.33058229	     -8.55126304	     -0.00002065	    -68.88306646	      0.59045532	     -9.11015223	      1.24392318	      4.46914681	     12.81533466	      3.49491776	     -6.63965046	      0.72996435	    -11.78587802	      0.85034039	     -2.59946062	     -5.85999074	      1.51349338
      1.34183333	      0.79949147	      7.19574357	      0.75748555	      0.37909884	      0.99949670	      0.28174300	     20.75780416	     -8.40251237	      0.00699507	    -68.39154636	      1.28162881	     -9.36288537	      1.16742153	      3.93621428	     12.69714174	      3.76429517	     -6.38892754	      0.78830798	    -11.87725354	      0.82359639	     -2.71296359	     -5.72446141	      1.39494366
      1.34600000	      0.84525394	      7.07585449	      0.87268189	      0.38397367	      0.99999461	      0.28156175	     21.19095211	     -8.25872259	      0.00877071	    -67.85496292	      1.94077430	     -9.61016607	      1.07918532	      3.42483707	     12.57845947	      4.04305638	     -6.14305624	      0.84715395	    -11.99328251	      0.79143556	     -2.80370568	     -5.59561788	      1.26643641
      1.35016667	      0.88336435	      6.97458936	      0.98576484	      0.38884236	      1.00043068	      0.28136798	     21.62552805	     -8.14347244	      0.00647040	    -67.28208472	      2.57145766	     -9.83946551	      0.97548853	      2.92197351	     12.48037314	      4.32655982	     -5.89384692	      0.89954857	    -12.13474133	      0.75128800	     -2.89010255	     -5.46951090	      1.13280624
      1.35433333	      0.92579810	      6.85845507	      1.10273298	      0.39371036	      1.00084148	      0.28118036	     22.03267667	     -8.01276694	     -0.00447240	    -66.64841919	      3.16777048	    -10.05034200	      0.85592409	      2.41975479	     12.36309906	      4.61370026	     -5.65362412	      0.95414642	    -12.27944641	      0.70351622	     -2.97987400	     -5.33510874	      1.00397462
      1.35850000	      0.97950878	      6.74226163	      1.21869178	      0.39857360	      1.00124011	      0.28100984	     22.40926854	     -7.88374386	     -0.02273288	    -65.96045896	      3.73070797	    -10.23554492	      0.73274946	      1.91193194	     12.24210202	      4.89242822	     -5.42277668	      1.01973724	    -12.41482876	      0.65306253	     -3.08383888	     -5.20439417	      0.88061687
      1.36266667	      1.00949864	      6.63592141	      1.33558450	      0.40342316	      1.00155342	      0.28084054	     22.80255122	     -7.76728606	     -0.03838437	    -65.23554468	      4.26107842	    -10.41307442	      0.59051119	      1.43525413	     12.13042840	      5.18092920	     -5.19908505	      1.08236824	    -12.57624910	      0.59318919	     -3.16132522	     -5.08436244	      0.75003112
      1.36683333	      1.03811592	      6.54123514	      1.45029407	      0.40827106	      1.00181892	      0.28067850	     23.18315956	     -7.66704405	     -0.05757238	    -64.46744780	      4.76127786	    -10.54878756	      0.44218223	      0.96481195	     12.02899943	      5.46256359	     -4.98238554	      1.15481232	    -12.73393726	      0.52871601	     -3.23692900	     -4.97645045	      0.62974321
      1.37100000	      1.08062357	      6.42321627	      1.56818467	      0.41314251	      1.00210678	      0.28052288	     23.51769138	     -7.54490361	     -0.09594718	    -63.62592621	      5.17611440	    -10.65172259	      0.18678865	      0.47318981	     11.89821703	      5.76124137	     -4.75201951	      1.17580115	    -12.92213153	      0.41428370	     -3.32801196	     -4.83630591	      0.50006686
      1.37516667	      1.08655740	      6.32106304	      1.67843625	      0.41797608	      1.00226146	      0.28039757	     23.89283709	     -7.43541300	     -0.11850318	    -62.76848191	      5.62772502	    -10.74056130	      0.13594900	      0.06685042	     11.78084864	      5.95752850	     -4.60890210	      1.35418040	    -12.95038065	      0.39323559	     -3.38201108	     -4.72617272	      0.46299716
      1.37933333	      1.16226209	      6.25101937	      1.77210617	      0.42284790	      1.00248231	      0.28027202	     24.17074716	     -7.36032802	     -0.12936240	    -61.85938108	      6.00349357	    -10.87498308	     -0.02626553	     -0.46493083	     11.69649640	      6.25879553	     -4.36780670	      1.41209005	    -13.15345651	      0.31830236	     -3.51181851	     -4.64752500	      0.29464467
      1.38350000	      1.14562296	      6.15278530	      1.88553557	      0.42769245	      1.00254325	      0.28015265	     24.53143832	     -7.26071061	     -0.16370765	    -60.90538853	      6.35923326	    -10.91571868	     -0.08167036	     -0.84102508	     11.57966094	      6.46545564	     -4.23431801	      1.56306550	    -13.20674076	      0.29356241	     -3.53086525	     -4.53800481	      0.25650017
      1.38766667	      1.23379539	      6.08515782	      1.97174985	      0.43258536	      1.00271475	      0.28004731	     24.75663437	     -7.19034907	     -0.18495859	    -59.90268066	      6.65479151	    -11.00345281	     -0.23187686	     -1.38474503	     11.49114075	      6.76180671	     -3.99584298	      1.63800690	    -13.40852116	      0.22151479	     -3.66641590	     -4.45583091	      0.09860323
      1.39183333	      1.26069608	      6.02013529	      2.06671337	      0.43745596	      1.00276123	      0.27994599	     25.03800874	     -7.12848416	     -0.21774750	    -58.86916609	      6.93256276	    -11.03423282	     -0.39592623	     -1.83764284	     11.40457794	      7.02622545	     -3.80348798	      1.74169778	    -13.57987833	      0.14076744	     -3.73766188	     -4.38608450	     -0.00106123
      1.39600000	      1.25272208	      5.94709699	      2.16295789	      0.44231787	      1.00273101	      0.27986334	     25.33898609	     -7.05459937	     -0.24855611	    -57.79182326	      7.18214475	    -11.04673987	     -0.46029114	     -2.21954131	     11.30761777	      7.22213604	     -3.67535329	      1.89702520	    -13.62661200	      0.11038938	     -3.77209528	     -4.30470475	     -0.03332038
